<svg id="Livello_1" data-name="Livello 1" xmlns="http://www.w3.org/2000/svg" viewBox="0 0 300 290"><defs><style>.cls-1{fill:#fff;}</style></defs><rect class="cls-1" x="117.27" y="126.28" width="21.17" height="68.53"/><circle class="cls-1" cx="127.85" cy="114.82" r="7.36"/><rect class="cls-1" x="117.27" y="28" width="21.17" height="74.86"/><rect class="cls-1" x="95.25" y="25.55" width="17.18" height="22.09" transform="translate(140.44 -67.25) rotate(90)"/><rect class="cls-1" x="159.91" y="5.3" width="17.18" height="62.59" transform="translate(205.1 -131.91) rotate(90)"/><rect class="cls-1" x="160.33" y="47.64" width="21.17" height="147.36"/><path class="cls-1" d="M68.05,214.44A7.94,7.94,0,0,1,68,215.5a2.26,2.26,0,0,1-.23.72,1.15,1.15,0,0,1-.39.4,1.07,1.07,0,0,1-.51.13H54.05v35.92a.71.71,0,0,1-.14.45.92.92,0,0,1-.49.31,7.08,7.08,0,0,1-.93.19,11.6,11.6,0,0,1-1.46.08,11.72,11.72,0,0,1-1.44-.08,7.14,7.14,0,0,1-1-.19,1,1,0,0,1-.49-.31.71.71,0,0,1-.14-.45V216.75H35.21a1.07,1.07,0,0,1-.51-.13,1,1,0,0,1-.37-.4,2.91,2.91,0,0,1-.23-.72,5.44,5.44,0,0,1-.09-1.06,5.7,5.7,0,0,1,.09-1.07,3.19,3.19,0,0,1,.23-.75.86.86,0,0,1,.37-.42,1,1,0,0,1,.51-.13H66.85a1,1,0,0,1,.51.13,1,1,0,0,1,.39.42,2.47,2.47,0,0,1,.23.75A8.35,8.35,0,0,1,68.05,214.44Z"/><path class="cls-1" d="M80.67,252.67a.77.77,0,0,1-.14.45,1,1,0,0,1-.5.31,7.08,7.08,0,0,1-.93.19,11.49,11.49,0,0,1-1.46.08,11.72,11.72,0,0,1-1.44-.08,7.5,7.5,0,0,1-1-.19,1,1,0,0,1-.49-.31.77.77,0,0,1-.14-.45V212.9a.63.63,0,0,1,.16-.44,1.06,1.06,0,0,1,.53-.31,6.41,6.41,0,0,1,.94-.19,11,11,0,0,1,1.39-.08,11.49,11.49,0,0,1,1.46.08,5.74,5.74,0,0,1,.93.19,1,1,0,0,1,.5.31.72.72,0,0,1,.14.44Z"/><path class="cls-1" d="M121.27,214.44a6.56,6.56,0,0,1-.07,1.06,1.85,1.85,0,0,1-.23.72,1,1,0,0,1-.38.4,1.14,1.14,0,0,1-.51.13h-12.8v35.92a.77.77,0,0,1-.14.45,1,1,0,0,1-.49.31,7.86,7.86,0,0,1-.93.19,11.72,11.72,0,0,1-1.46.08,11.49,11.49,0,0,1-1.44-.08,7.14,7.14,0,0,1-.95-.19,1,1,0,0,1-.5-.31.77.77,0,0,1-.14-.45V216.75H88.44a1.07,1.07,0,0,1-.51-.13.9.9,0,0,1-.37-.4,2.54,2.54,0,0,1-.23-.72,5.44,5.44,0,0,1-.09-1.06,5.7,5.7,0,0,1,.09-1.07,2.78,2.78,0,0,1,.23-.75.81.81,0,0,1,.37-.42,1,1,0,0,1,.51-.13h31.64a1,1,0,0,1,.51.13.93.93,0,0,1,.38.42,2,2,0,0,1,.23.75A6.86,6.86,0,0,1,121.27,214.44Z"/><path class="cls-1" d="M156.29,251.55a3.57,3.57,0,0,1,.3,1.14.75.75,0,0,1-.27.66,1.73,1.73,0,0,1-.93.28,16,16,0,0,1-1.74.07c-.73,0-1.31,0-1.74,0a4.39,4.39,0,0,1-1-.16,1.09,1.09,0,0,1-.5-.3,2.65,2.65,0,0,1-.29-.48l-3.91-10.09H127.32l-3.73,10a1.57,1.57,0,0,1-.28.49,1.45,1.45,0,0,1-.51.36,3.52,3.52,0,0,1-1,.2,13.87,13.87,0,0,1-1.6.07,15,15,0,0,1-1.67-.08,1.8,1.8,0,0,1-.91-.31.74.74,0,0,1-.25-.65,3.57,3.57,0,0,1,.3-1.14L133,213a1.45,1.45,0,0,1,1-.93,5.66,5.66,0,0,1,1.12-.17c.46,0,1-.05,1.74-.05s1.37,0,1.87.05a6.24,6.24,0,0,1,1.19.17,1.51,1.51,0,0,1,1.09,1Zm-19.58-34h0l-7.84,20.65h15.82Z"/><path class="cls-1" d="M198.26,251.23a2.28,2.28,0,0,1-.23,1.09,2.14,2.14,0,0,1-.62.74,2.4,2.4,0,0,1-.85.41,3.45,3.45,0,0,1-.95.13h-2a7.28,7.28,0,0,1-1.65-.17,4.08,4.08,0,0,1-1.35-.64,6.91,6.91,0,0,1-1.27-1.27,15.18,15.18,0,0,1-1.35-2.05L174.11,225.9c-.73-1.21-1.46-2.49-2.19-3.82s-1.43-2.63-2.06-3.89h-.07c0,1.53.08,3.1.1,4.7s0,3.2,0,4.78v25a.75.75,0,0,1-.15.44,1,1,0,0,1-.5.32,7.45,7.45,0,0,1-.93.19,13.45,13.45,0,0,1-2.93,0,7,7,0,0,1-.91-.19,1,1,0,0,1-.48-.32.75.75,0,0,1-.15-.44V214.44a2,2,0,0,1,.8-1.82,3,3,0,0,1,1.74-.55h3a7.94,7.94,0,0,1,1.76.16,3.88,3.88,0,0,1,1.27.53,4.89,4.89,0,0,1,1.09,1,14.7,14.7,0,0,1,1.1,1.65l10.67,18.19c.66,1.11,1.29,2.19,1.9,3.25s1.2,2.1,1.77,3.12,1.12,2,1.68,3,1.1,2,1.65,3h0c0-1.68-.07-3.44-.08-5.26s0-3.58,0-5.27V213a.68.68,0,0,1,.15-.42,1.11,1.11,0,0,1,.5-.33,3.21,3.21,0,0,1,.92-.21,14.87,14.87,0,0,1,1.51-.07,14.1,14.1,0,0,1,1.41.07,3.05,3.05,0,0,1,.92.21,1.2,1.2,0,0,1,.49.33.73.73,0,0,1,.14.42Z"/><path class="cls-1" d="M216.41,252.67a.72.72,0,0,1-.15.45.92.92,0,0,1-.49.31,7.08,7.08,0,0,1-.93.19,11.6,11.6,0,0,1-1.46.08,11.72,11.72,0,0,1-1.44-.08,7.5,7.5,0,0,1-.95-.19,1,1,0,0,1-.49-.31.77.77,0,0,1-.14-.45V212.9a.63.63,0,0,1,.16-.44,1.07,1.07,0,0,1,.52-.31,6.88,6.88,0,0,1,1-.19,11,11,0,0,1,1.39-.08,11.6,11.6,0,0,1,1.46.08,5.74,5.74,0,0,1,.93.19.92.92,0,0,1,.49.31.67.67,0,0,1,.15.44Z"/><path class="cls-1" d="M262.57,251.55a3.78,3.78,0,0,1,.29,1.14.72.72,0,0,1-.26.66,1.79,1.79,0,0,1-.93.28,16,16,0,0,1-1.74.07c-.73,0-1.31,0-1.74,0a4.5,4.5,0,0,1-1-.16,1.11,1.11,0,0,1-.49-.3,3.35,3.35,0,0,1-.3-.48l-3.9-10.09H233.6l-3.73,10a1.57,1.57,0,0,1-.28.49,1.45,1.45,0,0,1-.51.36,3.52,3.52,0,0,1-1,.2,13.87,13.87,0,0,1-1.6.07,14.88,14.88,0,0,1-1.67-.08,1.8,1.8,0,0,1-.91-.31.74.74,0,0,1-.25-.65,3.57,3.57,0,0,1,.3-1.14L239.26,213a1.45,1.45,0,0,1,.37-.57,1.58,1.58,0,0,1,.66-.36,5.9,5.9,0,0,1,1.13-.17c.46,0,1-.05,1.74-.05s1.37,0,1.86.05a6.49,6.49,0,0,1,1.2.17,1.65,1.65,0,0,1,.7.37,1.9,1.9,0,0,1,.39.59Zm-19.59-34h0l-7.84,20.65h15.82Z"/></svg>