<svg id="Livello_1" data-name="Livello 1" xmlns="http://www.w3.org/2000/svg" xmlns:xlink="http://www.w3.org/1999/xlink" viewBox="0 0 474.9 474.9"><defs><style>.cls-1{fill:url(#Sfumatura_senza_nome_187);}.cls-2{fill:url(#Sfumatura_senza_nome_187-2);}.cls-3{fill:url(#Sfumatura_senza_nome_187-3);}.cls-4{fill:url(#Sfumatura_senza_nome_187-4);}.cls-5{fill:url(#Sfumatura_senza_nome_187-5);}.cls-6{fill:url(#Sfumatura_senza_nome_187-6);}.cls-7{fill:url(#Sfumatura_senza_nome_187-7);}.cls-8{fill:url(#Sfumatura_senza_nome_187-8);}.cls-9{fill:url(#Sfumatura_senza_nome_187-9);}.cls-10{fill:url(#Sfumatura_senza_nome_187-10);}.cls-11{fill:url(#Sfumatura_senza_nome_187-11);}.cls-12{fill:url(#Sfumatura_senza_nome_187-12);}.cls-13{fill:url(#Sfumatura_senza_nome_187-13);}</style><linearGradient id="Sfumatura_senza_nome_187" x1="171.75" y1="280.45" x2="214.99" y2="280.45" gradientUnits="userSpaceOnUse"><stop offset="0" stop-color="#183054"/><stop offset="0.56" stop-color="#244a7e"/><stop offset="1" stop-color="#183054"/></linearGradient><linearGradient id="Sfumatura_senza_nome_187-2" x1="178.33" y1="187.07" x2="208.41" y2="187.07" xlink:href="#Sfumatura_senza_nome_187"/><linearGradient id="Sfumatura_senza_nome_187-3" x1="171.75" y1="86.21" x2="214.99" y2="86.21" xlink:href="#Sfumatura_senza_nome_187"/><linearGradient id="Sfumatura_senza_nome_187-4" x1="144.35" y1="44.86" x2="144.35" y2="9.77" gradientTransform="translate(117.03 171.67) rotate(-90)" xlink:href="#Sfumatura_senza_nome_187"/><linearGradient id="Sfumatura_senza_nome_187-5" x1="276.39" y1="44.86" x2="276.39" y2="9.77" gradientTransform="translate(249.07 303.71) rotate(-90)" xlink:href="#Sfumatura_senza_nome_187"/><linearGradient id="Sfumatura_senza_nome_187-6" x1="259.7" y1="200.34" x2="302.93" y2="200.34" xlink:href="#Sfumatura_senza_nome_187"/><linearGradient id="Sfumatura_senza_nome_187-7" x1="1.75" y1="428.17" x2="71.24" y2="428.17" xlink:href="#Sfumatura_senza_nome_187"/><linearGradient id="Sfumatura_senza_nome_187-8" x1="84.67" y1="427.98" x2="97.02" y2="427.98" xlink:href="#Sfumatura_senza_nome_187"/><linearGradient id="Sfumatura_senza_nome_187-9" x1="110.44" y1="428.17" x2="179.94" y2="428.17" xlink:href="#Sfumatura_senza_nome_187"/><linearGradient id="Sfumatura_senza_nome_187-10" x1="172.07" y1="427.98" x2="252.05" y2="427.98" xlink:href="#Sfumatura_senza_nome_187"/><linearGradient id="Sfumatura_senza_nome_187-11" x1="266.95" y1="428.07" x2="337.16" y2="428.07" xlink:href="#Sfumatura_senza_nome_187"/><linearGradient id="Sfumatura_senza_nome_187-12" x1="361.86" y1="427.98" x2="374.21" y2="427.98" xlink:href="#Sfumatura_senza_nome_187"/><linearGradient id="Sfumatura_senza_nome_187-13" x1="389.1" y1="427.98" x2="469.09" y2="427.98" xlink:href="#Sfumatura_senza_nome_187"/></defs><rect class="cls-1" x="171.75" y="210.47" width="43.23" height="139.95"/><circle class="cls-2" cx="193.37" cy="187.07" r="15.04"/><rect class="cls-3" x="171.75" y="9.77" width="43.23" height="152.88"/><rect class="cls-4" x="126.8" y="4.76" width="35.09" height="45.11" transform="translate(171.67 -117.03) rotate(90)"/><rect class="cls-5" x="258.85" y="-36.59" width="35.09" height="127.82" transform="translate(303.71 -249.07) rotate(90)"/><rect class="cls-6" x="259.7" y="49.87" width="43.23" height="300.93"/><path class="cls-7" d="M71.24,390.51a15,15,0,0,1-.14,2.16,4.24,4.24,0,0,1-.47,1.47,2.05,2.05,0,0,1-1.83,1.08H42.67v73.36a1.53,1.53,0,0,1-.29.92,1.94,1.94,0,0,1-1,.62,12.37,12.37,0,0,1-1.91.39,22.1,22.1,0,0,1-3,.17,22.2,22.2,0,0,1-2.94-.17,12.36,12.36,0,0,1-1.94-.39,1.89,1.89,0,0,1-1-.62,1.53,1.53,0,0,1-.29-.92V395.22H4.19a2,2,0,0,1-1-.27,1.82,1.82,0,0,1-.76-.81,5.32,5.32,0,0,1-.46-1.47,11.33,11.33,0,0,1-.18-2.16,11.81,11.81,0,0,1,.18-2.19,5.9,5.9,0,0,1,.46-1.54,1.82,1.82,0,0,1,.76-.85,2.11,2.11,0,0,1,1-.26H68.8a2.14,2.14,0,0,1,1,.26,2,2,0,0,1,.79.85,4.67,4.67,0,0,1,.47,1.54A15.6,15.6,0,0,1,71.24,390.51Z"/><path class="cls-8" d="M97,468.58a1.53,1.53,0,0,1-.29.92,1.93,1.93,0,0,1-1,.62,12.21,12.21,0,0,1-1.9.39,25.85,25.85,0,0,1-5.92,0,12.12,12.12,0,0,1-1.94-.39,2,2,0,0,1-1-.62,1.52,1.52,0,0,1-.28-.92V387.37a1.38,1.38,0,0,1,.32-.92,2.25,2.25,0,0,1,1.08-.62,13.41,13.41,0,0,1,1.94-.39,20.82,20.82,0,0,1,2.83-.16,22.31,22.31,0,0,1,3,.16,12.21,12.21,0,0,1,1.9.39,2,2,0,0,1,1,.62,1.53,1.53,0,0,1,.29.92Z"/><path class="cls-9" d="M179.94,390.51a13.54,13.54,0,0,1-.15,2.16,4.25,4.25,0,0,1-.46,1.47,2.12,2.12,0,0,1-.79.81,2,2,0,0,1-1,.27H151.36v73.36a1.52,1.52,0,0,1-.28.92,2,2,0,0,1-1,.62,12.21,12.21,0,0,1-1.9.39,22.2,22.2,0,0,1-3,.17,22.47,22.47,0,0,1-2.95-.17,12.2,12.2,0,0,1-1.93-.39,1.93,1.93,0,0,1-1-.62,1.53,1.53,0,0,1-.29-.92V395.22H112.88a2,2,0,0,1-1-.27,1.85,1.85,0,0,1-.75-.81,5.65,5.65,0,0,1-.47-1.47,11.33,11.33,0,0,1-.18-2.16,11.81,11.81,0,0,1,.18-2.19,6.27,6.27,0,0,1,.47-1.54,1.86,1.86,0,0,1,.75-.85,2.14,2.14,0,0,1,1-.26H177.5a2.14,2.14,0,0,1,1,.26,2.11,2.11,0,0,1,.79.85,4.68,4.68,0,0,1,.46,1.54A14.12,14.12,0,0,1,179.94,390.51Z"/><path class="cls-10" d="M251.44,466.3a7.12,7.12,0,0,1,.61,2.32,1.51,1.51,0,0,1-.54,1.34,3.72,3.72,0,0,1-1.9.59c-.88.08-2.07.13-3.55.13s-2.67,0-3.56-.1a9.23,9.23,0,0,1-2-.33,2.12,2.12,0,0,1-1-.62,4.72,4.72,0,0,1-.61-1l-8-20.6H192.28l-7.61,20.34a3.2,3.2,0,0,1-.57,1,2.78,2.78,0,0,1-1,.72,6.86,6.86,0,0,1-1.94.43c-.84.08-1.93.13-3.27.13a28.64,28.64,0,0,1-3.41-.17,3.59,3.59,0,0,1-1.86-.62,1.57,1.57,0,0,1-.51-1.34,7.52,7.52,0,0,1,.62-2.32l31.15-78.6a3.43,3.43,0,0,1,.76-1.18,3.28,3.28,0,0,1,1.36-.72,12,12,0,0,1,2.3-.36c.93-.06,2.12-.09,3.55-.09s2.8,0,3.81.09a13,13,0,0,1,2.44.36,3.07,3.07,0,0,1,2.22,2Zm-40-69.38h-.07l-16,42.17h32.31Z"/><path class="cls-11" d="M337.16,465.64a4.73,4.73,0,0,1-.48,2.22,4.34,4.34,0,0,1-1.26,1.51,5.18,5.18,0,0,1-1.75.85,7.48,7.48,0,0,1-1.93.26h-4.08a14.12,14.12,0,0,1-3.38-.36,8,8,0,0,1-2.75-1.31,14,14,0,0,1-2.6-2.58,34.88,34.88,0,0,1-2.75-4.18l-28.34-48.13q-2.22-3.74-4.48-7.82t-4.21-7.94H279q.15,4.71.22,9.61c0,3.27.07,6.52.07,9.74v51.07a1.48,1.48,0,0,1-.31.89,1.9,1.9,0,0,1-1,.65,12.3,12.3,0,0,1-1.89.39,26.47,26.47,0,0,1-6,0,11,11,0,0,1-1.85-.39,1.89,1.89,0,0,1-1-.65,1.54,1.54,0,0,1-.3-.89V390.51a4.17,4.17,0,0,1,1.63-3.73,6.19,6.19,0,0,1,3.56-1.11h6.07a16.53,16.53,0,0,1,3.6.33,7.48,7.48,0,0,1,2.59,1.08,9.36,9.36,0,0,1,2.22,2.09,26.82,26.82,0,0,1,2.26,3.37l21.79,37.14c1.34,2.26,2.63,4.48,3.88,6.63s2.45,4.29,3.61,6.38,2.3,4.15,3.43,6.18,2.26,4.06,3.37,6.11H325q-.15-5.16-.18-10.76c0-3.72,0-7.31,0-10.75v-45.9a1.42,1.42,0,0,1,.31-.86,2.35,2.35,0,0,1,1-.68,7.16,7.16,0,0,1,1.89-.43c.79-.08,1.81-.13,3.07-.13,1.11,0,2.07,0,2.88.13a6.79,6.79,0,0,1,1.9.43,2.38,2.38,0,0,1,1,.68,1.41,1.41,0,0,1,.3.86Z"/><path class="cls-12" d="M374.21,468.58a1.53,1.53,0,0,1-.29.92,1.94,1.94,0,0,1-1,.62,12.37,12.37,0,0,1-1.91.39,25.85,25.85,0,0,1-5.92,0,12.36,12.36,0,0,1-1.94-.39,1.89,1.89,0,0,1-1-.62,1.53,1.53,0,0,1-.29-.92V387.37a1.43,1.43,0,0,1,.32-.92,2.3,2.3,0,0,1,1.08-.62,13.41,13.41,0,0,1,1.94-.39,20.92,20.92,0,0,1,2.83-.16,22.31,22.31,0,0,1,3,.16,12.37,12.37,0,0,1,1.91.39,2,2,0,0,1,1,.62,1.53,1.53,0,0,1,.29.92Z"/><path class="cls-13" d="M468.47,466.3a7.12,7.12,0,0,1,.61,2.32,1.51,1.51,0,0,1-.54,1.34,3.72,3.72,0,0,1-1.9.59c-.88.08-2.07.13-3.55.13s-2.67,0-3.56-.1a9.23,9.23,0,0,1-2-.33,2.12,2.12,0,0,1-1-.62,4.72,4.72,0,0,1-.61-1l-8-20.6H409.32l-7.61,20.34a3.43,3.43,0,0,1-.58,1,2.78,2.78,0,0,1-1,.72,6.78,6.78,0,0,1-1.94.43c-.84.08-1.92.13-3.26.13a28.7,28.7,0,0,1-3.42-.17,3.59,3.59,0,0,1-1.86-.62,1.54,1.54,0,0,1-.5-1.34,7.18,7.18,0,0,1,.61-2.32l31.15-78.6a3.59,3.59,0,0,1,.76-1.18,3.28,3.28,0,0,1,1.36-.72,12,12,0,0,1,2.3-.36c.93-.06,2.12-.09,3.55-.09s2.8,0,3.81.09a13,13,0,0,1,2.44.36,3,3,0,0,1,2.22,2Zm-40-69.38h-.07l-16,42.17h32.31Z"/></svg>